# xmcd
#
# Track frame offsets:
# 150
# 18551
# 28931
# 42052
# 68430
# 88418
#
# Disc length: 1312 seconds
#
# Revision: 0
# Processed by: cddbd v1.5.1PL0 Copyright (c) Steve Scherf et al.
# Submitted via: Audion 3.0.2 (http://www.panic.com/audion/)
#
DISCID=47051e06
DTITLE=Minus Story - Heaven and Hell
DYEAR=1900
DGENRE=
TTITLE0=Heaven and Hell
TTITLE1=Time Wastes Itself
TTITLE2=Suffer by Yourself
TTITLE3=Misery Is a Ship
TTITLE4=Hybrid Moments
TTITLE5=
EXTD=
EXTT0=
EXTT1=
EXTT2=
EXTT3=
EXTT4=
EXTT5=
PLAYORDER=
